<?xml version="1.0" encoding="utf-8"?>
<!-- Generator: Adobe Illustrator 25.2.0, SVG Export Plug-In . SVG Version: 6.00 Build 0)  -->
<svg version="1.1"
	 id="svg2" xmlns:cc="http://creativecommons.org/ns#" xmlns:dc="http://purl.org/dc/elements/1.1/" xmlns:rdf="http://www.w3.org/1999/02/22-rdf-syntax-ns#"
	 xmlns="http://www.w3.org/2000/svg" xmlns:xlink="http://www.w3.org/1999/xlink" x="0px" y="0px" viewBox="0 0 256 256"
	 style="enable-background:new 0 0 256 256;" xml:space="preserve">
<style type="text/css">
	.st0{opacity:0.2;enable-background:new    ;}
</style>
<path id="mainsymbolpath" class="st0" d="M73.9,12C9.9,41.9-17.8,118,12,182.1s106,91.8,170.1,61.9S273.8,138,244,73.9
	S138-17.8,73.9,12z M111.7,93c19.3-9,42.3-0.6,51.3,18.7c9,19.3,0.6,42.3-18.7,51.3c-19.3,9-42.3,0.6-51.3-18.7
	C84,125,92.4,102,111.7,93z M30.6,182.7l52.1-24.3c14.7,22,43.6,30.5,68.3,19c24.7-11.5,36.7-39.2,29.4-64.6l52.1-24.3
	c20.5,54.2-3.9,115.8-57.3,140.7S58.9,233.2,30.6,182.7z"/>
</svg>
